<?xml version="1.0" standalone="no"?>
<!DOCTYPE svg PUBLIC "-//W3C//DTD SVG 20010904//EN"
 "http://www.w3.org/TR/2001/REC-SVG-20010904/DTD/svg10.dtd">
<svg version="1.0" xmlns="http://www.w3.org/2000/svg"
 width="260.000000pt" height="260.000000pt" viewBox="0 0 260.000000 260.000000"
 preserveAspectRatio="xMidYMid meet">
<metadata>
Created by potrace 1.11, written by Peter Selinger 2001-2013
</metadata>
<g transform="translate(0.000000,260.000000) scale(0.100000,-0.100000)"
fill="#000000" stroke="none">
<path d="M1951 2290 c-48 -11 -114 -42 -128 -60 -7 -8 -23 -37 -37 -65 -53
-109 -146 -307 -146 -313 0 -3 -8 -24 -19 -46 -10 -23 -31 -69 -47 -103 -24
-56 -42 -78 -45 -55 -6 49 -9 96 -13 198 -6 153 -20 189 -96 246 -50 38 -75
39 -160 9 -75 -26 -75 -26 -133 -111 -32 -47 -92 -155 -134 -240 -67 -138 -76
-152 -84 -131 -10 24 -14 173 -9 331 3 110 -6 153 -38 186 -64 63 -131 73
-219 30 -43 -20 -58 -33 -59 -49 -2 -18 -21 -139 -39 -242 -2 -11 -24 -105
-50 -210 -48 -198 -91 -407 -100 -484 -3 -25 -7 -57 -10 -71 -3 -14 -8 -61
-11 -105 -3 -44 -9 -107 -14 -140 -15 -120 -12 -217 10 -287 34 -111 84 -153
217 -184 74 -17 122 -13 146 14 9 9 34 85 57 167 23 83 64 231 92 330 39 142
133 497 137 520 1 3 1 20 1 38 0 22 11 49 32 78 29 40 32 42 39 21 11 -29 4
-84 -20 -162 -34 -109 -44 -198 -44 -372 1 -172 14 -280 40 -331 46 -92 197
-157 291 -126 41 14 59 52 91 194 32 141 177 578 220 662 11 23 24 55 46 113
31 84 68 160 77 160 5 0 7 -8 4 -17 -35 -120 -78 -309 -91 -393 -4 -25 -11
-67 -16 -95 -33 -173 -32 -367 2 -465 43 -123 177 -228 277 -217 95 10 125 85
110 274 -4 40 3 108 19 200 13 76 26 154 29 173 3 19 9 58 14 85 5 28 12 64
14 80 3 17 15 86 26 155 12 69 24 139 26 155 3 17 9 53 14 80 5 28 12 73 16
100 3 28 9 71 13 96 21 132 -42 339 -114 373 -35 17 -125 20 -184 6z"/>
</g>
</svg>
